<svg width="118" height="28" viewBox="0 0 118 28" fill="none" xmlns="http://www.w3.org/2000/svg">
<path d="M0.948486 26.5582L2.47556 21.0414H16.4737C15.4962 22.528 14.1942 23.7973 12.656 24.7632C10.808 25.919 8.72101 26.5568 6.77823 26.5568L0.948486 26.5582ZM3.7764 16.3628L7.90233 1.44189H13.4875C14.6907 1.44189 15.7159 1.80789 16.4568 2.49816C17.1637 3.16422 17.5597 4.11284 17.5597 5.16372C17.5565 5.61177 17.4933 6.05761 17.3716 6.49045C16.9969 7.84543 16.099 9.14121 14.8265 10.1396L14.1619 10.6644L14.9255 11.0506C16.8937 12.0449 18.022 13.9274 18.022 16.2135C18.022 16.2633 18.022 16.3117 18.022 16.3615L3.7764 16.3628Z" fill="#F5C200"/>
<path d="M13.6977 1.647C14.7771 1.647 15.6889 1.96681 16.3356 2.57045C16.9823 3.17409 17.2926 3.96463 17.2926 4.90885C17.2899 5.32089 17.2311 5.73086 17.1178 6.12859C16.7639 7.41062 15.9045 8.64005 14.6984 9.58981L13.3292 10.6711L14.9009 11.4616C16.608 12.3228 17.6334 13.9094 17.7616 15.8574H4.46444L8.39722 1.64146H13.6905L13.6977 1.647ZM15.6321 21.8079C14.7627 22.9011 13.7037 23.8455 12.5004 24.6004C10.6943 25.7315 8.66087 26.3532 6.77459 26.3532H1.55563L2.81413 21.8134H15.6394L15.6321 21.8079ZM13.6977 0.511719H7.4854L2.91463 16.9996H18.9371C18.9589 16.7559 18.9706 16.515 18.9706 16.2796C18.9706 13.6976 17.6597 11.5724 15.4631 10.4648C16.8017 9.40705 17.8403 7.9838 18.2743 6.41794C18.4134 5.9257 18.4853 5.41852 18.4885 4.90885C18.4885 2.37801 16.5803 0.511719 13.6992 0.511719H13.6977ZM17.7922 20.6782H1.89356L0 27.4885H6.77313C11.1924 27.4885 15.7035 24.581 17.7864 20.6782H17.7922Z" fill="#F5C200"/>
<path d="M34.3312 18.1345L36.6135 22.0639H34.0898L31.9917 18.4363H28.816L28.0877 22.0639H25.6953L28.2507 9.67627H33.2154C36.298 9.67627 38.0679 11.0579 38.0679 13.4106C38.0722 15.8126 36.6854 17.494 34.3312 18.1345ZM35.6819 13.618C35.6819 12.2733 34.6974 11.6184 32.9635 11.6184H30.2451L29.2225 16.5455H32.051C34.3502 16.5393 35.6819 15.5293 35.6819 13.618Z" fill="#222222"/>
<path d="M50.2817 12.61L48.3466 22.0536H46.1744L46.3755 21.0805C45.4953 21.8176 44.3624 22.2087 43.1998 22.1768C40.8096 22.1768 38.9126 20.6371 38.9126 18.0196C38.9126 14.7984 41.2838 12.4971 44.4045 12.4971C45.9204 12.4971 47.07 12.9939 47.7263 14.0019L47.9994 12.6038L50.2817 12.61ZM47.142 16.7508C47.142 15.2829 46.2125 14.3796 44.5696 14.3796C42.6345 14.3796 41.2118 15.8311 41.2118 17.919C41.2118 19.3868 42.1413 20.2901 43.7842 20.2901C45.7192 20.2901 47.142 18.8387 47.142 16.7508Z" fill="#222222"/>
<path d="M62.7095 16.6441C62.7095 19.8652 60.3362 22.1871 57.2346 22.1871C55.7018 22.1871 54.5331 21.6739 53.8937 20.6658L52.9092 25.4965H50.627L53.2734 12.6141H55.4456L55.2445 13.6057C56.1244 12.8679 57.2573 12.4761 58.4202 12.5074C60.8104 12.5032 62.7095 14.0286 62.7095 16.6441ZM60.4103 16.7508C60.4103 15.283 59.4788 14.3797 57.8358 14.3797C55.9029 14.3797 54.478 15.8311 54.478 17.919C54.478 19.3868 55.4096 20.2902 57.0525 20.2902C58.9855 20.2902 60.4103 18.8387 60.4103 16.7508Z" fill="#222222"/>
<path d="M65.7918 12.61H68.0741L66.1391 22.0537H63.8589L65.7918 12.61ZM66.084 9.81391C66.084 9.01736 66.7043 8.39941 67.6359 8.39941C68.4573 8.39941 69.0036 8.92908 69.0036 9.58398C69.0036 10.4503 68.3832 11.0539 67.4538 11.0539C67.2789 11.0639 67.1037 11.0394 66.9388 10.9817C66.774 10.9241 66.6229 10.8346 66.4948 10.7186C66.3667 10.6027 66.2642 10.4627 66.1936 10.3072C66.123 10.1516 66.0857 9.98383 66.084 9.81391Z" fill="#222222"/>
<path d="M81.3594 8.92896L78.6579 22.0679H76.4858L76.6975 21.0948C75.82 21.8242 74.6962 22.2145 73.5408 22.1911C71.1315 22.1911 69.2515 20.6514 69.2515 18.0339C69.2515 14.8128 71.6057 12.5114 74.7264 12.5114C76.2402 12.5114 77.4088 13.0082 78.0482 13.9813L79.0877 8.93717L81.3594 8.92896ZM77.4533 16.7508C77.4533 15.2829 76.5217 14.3796 74.881 14.3796C72.9459 14.3796 71.5401 15.831 71.5401 17.9189C71.5401 19.3868 72.4716 20.2901 74.1145 20.2901C76.0475 20.2901 77.4533 18.8386 77.4533 16.7508Z" fill="#222222"/>
<path d="M93.9501 18.1674C93.9501 20.7849 91.6212 22.068 88.293 22.068H81.8887L84.442 9.68042H90.3361C92.9825 9.68042 94.4984 10.6535 94.4984 12.4581C94.4984 14.0512 93.5309 15.1495 92.2161 15.6628C93.2937 16.0426 93.9501 16.9028 93.9501 18.1674ZM91.5789 18.1674C91.5789 17.069 90.732 16.681 89.2775 16.681H85.3544L84.6261 20.2552H88.4582C90.4292 20.2552 91.5789 19.547 91.5789 18.1674ZM86.4321 11.4768L85.7207 14.8929H89.0954C90.8654 14.8929 92.015 14.2031 92.015 12.8399C92.015 11.9017 91.2126 11.4768 89.8068 11.4768H86.4321Z" fill="#222222"/>
<path d="M95.6479 18.0257C95.6479 14.8579 98.0552 12.5032 101.432 12.5032C104.316 12.5032 106.177 14.1312 106.177 16.644C106.177 19.8117 103.75 22.187 100.373 22.187C97.5089 22.1829 95.6479 20.52 95.6479 18.0257ZM103.877 16.7508C103.877 15.2829 102.946 14.3796 101.305 14.3796C99.3699 14.3796 97.9472 15.831 97.9472 17.9189C97.9472 19.3868 98.8766 20.2901 100.52 20.2901C102.455 20.2901 103.877 18.8386 103.877 16.7508Z" fill="#222222"/>
<path d="M112.947 17.3132L115.721 22.0556H113.311L111.45 18.7708L108.258 22.0556H105.628L110.519 17.1757L107.874 12.6099H110.246L112.001 15.7057L115.066 12.6099H117.622L112.947 17.3132Z" fill="#222222"/>
</svg>
